<?xml version="1.0" encoding="UTF-8" standalone="no"?>
<!DOCTYPE svg PUBLIC "-//W3C//DTD SVG 1.1//EN" "http://www.w3.org/Graphics/SVG/1.1/DTD/svg11.dtd">
<svg width="100%" height="100%" viewBox="0 0 800 800" version="1.1" xmlns="http://www.w3.org/2000/svg" xmlns:xlink="http://www.w3.org/1999/xlink" xml:space="preserve" xmlns:serif="http://www.serif.com/" style="fill-rule:evenodd;clip-rule:evenodd;stroke-linejoin:round;stroke-miterlimit:2;">
    <g transform="matrix(2.275677,0,0,2.275677,34.396029,-90.659642)">
        <path d="M145.513,60.501C145.719,57.135 145.589,54.284 147.397,52.402C149.13,50.599 149.583,50.659 162.499,50.7C168.257,50.718 168.786,53.824 169.076,57.555C169.581,64.055 170.248,63.971 170.619,70.49C170.965,76.569 171.754,76.471 172.144,82.534C172.185,83.169 172.53,88.551 172.877,90.456C174.547,99.649 173.438,99.803 174.744,105.465C175.588,109.122 175.202,110.376 175.85,111.227C177.254,113.072 191.181,110.722 194.33,112.777C197.265,114.69 196.682,118.788 196.699,124.5C196.725,133.602 196.273,134.541 198.482,135.543C202.425,137.33 206.48,137.289 212.78,145.292C216.237,149.683 217.111,154.222 217.161,154.576C217.937,160.063 217.837,160.49 217.844,161.5C217.886,167.601 217.854,167.595 217.854,330.5C217.854,357.571 218.209,357.796 215.328,364.417C214.213,366.98 212.154,369.395 211.822,369.785C208.185,374.051 204.177,375.9 202.586,376.687C200.317,377.81 195.107,379.022 193.485,379.079C190.462,379.185 123.608,379.123 122.505,379.108C119.372,379.066 118.258,378.337 115.427,377.773C111.627,377.017 104.181,372.92 100.267,365.625C97.163,359.84 97.255,357.16 97.233,351.501C97.236,306.167 97.24,260.834 97.244,215.5C97.245,156.006 97.138,155.931 98.045,153.363C99.283,149.86 100.71,145.998 105.52,141.522C107.793,139.405 111.838,137.205 112.654,136.895C116.859,135.3 118.468,136.002 118.484,131.5C118.539,115.799 117.922,114.721 120.659,112.75C123.137,110.965 136.444,112.635 138.559,111.6C140.861,110.474 140.127,101.134 141.317,95.474C142.243,91.073 142.09,91.061 142.401,86.489C142.778,80.955 143.349,81.042 143.76,75.527C144.323,67.97 144.841,68.042 145.513,60.501Z" style="fill:rgb(255,38,0);"/>
    </g>
</svg>
